<svg xmlns="http://www.w3.org/2000/svg" width="430" height="220" viewBox="34 18 430 220" fill="none">
  <defs>
    <linearGradient id="ow-hero-coral" x1="74" y1="120" x2="172" y2="70" gradientUnits="userSpaceOnUse">
      <stop stop-color="#EB4E4D"/>
      <stop offset="1" stop-color="#F0CE9D"/>
    </linearGradient>
    <linearGradient id="ow-hero-teal" x1="74" y1="142" x2="172" y2="104" gradientUnits="userSpaceOnUse">
      <stop stop-color="#00A8AE"/>
      <stop offset="1" stop-color="#3BC1EE"/>
    </linearGradient>
    <filter id="ow-shadow" x="28" y="22" width="156" height="156" color-interpolation-filters="sRGB" filterUnits="userSpaceOnUse">
      <feDropShadow dx="0" dy="18" stdDeviation="18" flood-color="#07315F" flood-opacity=".16"/>
    </filter>
  </defs>
  <g filter="url(#ow-shadow)">
    <rect x="54" y="34" width="132" height="132" rx="34" fill="#07315F"/>
    <path d="M77 118c15.4-32.9 32.8-49.3 52.2-49.3 13.5 0 21.4 11.6 31.2 22 8.1 8.7 16.1 16 29.6 9.8" stroke="url(#ow-hero-coral)" stroke-width="11" stroke-linecap="round" stroke-linejoin="round"/>
    <path d="M77 139c15.9-22.3 32.9-33.4 51.2-33.4 13.2 0 22.2 7.9 31.5 14.8 8.1 6 16.1 10.5 30.8 2.2" stroke="url(#ow-hero-teal)" stroke-width="7" stroke-linecap="round" stroke-linejoin="round"/>
    <circle cx="128.5" cy="68.7" r="6" fill="#F0CE9D"/>
    <circle cx="172.5" cy="122.7" r="4.5" fill="#3BC1EE"/>
  </g>
  <text x="220" y="90" fill="#071A2F" font-family="-apple-system,BlinkMacSystemFont,Segoe UI,Arial,sans-serif" font-size="45" font-weight="830" letter-spacing="-.045em">OpenWave</text>
  <text x="220" y="126" fill="#5F6B7A" font-family="-apple-system,BlinkMacSystemFont,Segoe UI,Arial,sans-serif" font-size="18" font-weight="650">Payments + Open Banking</text>
  <text x="220" y="204" fill="#071A2F" font-family="-apple-system,BlinkMacSystemFont,Segoe UI,Arial,sans-serif" font-size="42" font-weight="860" letter-spacing="-.055em">Neptune</text>
  <circle cx="397" cy="194" r="5" fill="#EB4E4D"/>
</svg>
